<svg xmlns="http://www.w3.org/2000/svg" xmlns:xlink="http://www.w3.org/1999/xlink" data-background-color="#ffffff" preserveAspectRatio="xMidYMid meet" viewBox="0 0 640 400"><rect width="640" height="400" x="0" y="0" opacity="1" fill="#ffffff" data-fill-palette-color="background" id="background"/><g id="tight-bounds" transform="matrix(1,0,0,1,122.24000000000001,144.09582443836626)"><svg viewBox="0 0 395.52 111.8083511232675" height="111.8083511232675" width="395.52"><g><svg viewBox="0 0 395.52 111.8083511232675" height="111.8083511232675" width="395.52"><g><svg viewBox="0 0 395.52 111.8083511232675" height="111.8083511232675" width="395.52"><g><svg viewBox="0 0 395.52 111.8083511232675" height="111.8083511232675" width="395.52"><g><svg viewBox="0 0 395.52 79.87331453623686" height="79.87331453623686" width="395.52"><g transform="matrix(1,0,0,1,0,0)"><svg width="395.52" viewBox="-1.5511919260025024 -32.60625457763672 220.6783447265625 44.56486511230469" height="79.87331453623686" data-palette-color="#a437db"><path d="M-0.462-22.274l17.152-3.103c0.551-0.1 1.086 1.284 1.604 4.151 0.518 2.867 0.502 4.35-0.048 4.45v0l-8.896 1.609 1.002 5.54 5.934-1.073c0.551-0.1 1.054 1.107 1.508 3.619 0.454 2.513 0.423 3.816-0.096 3.909v0l-5.983 1.083 2.118 11.71c0.082 0.453-0.471 0.861-1.658 1.224-1.188 0.364-2.188 0.619-3.002 0.767v0l-2.299 0.324c-1.623 0.09-2.476-0.091-2.557-0.543v0l-5.82-32.178c-0.094-0.518-0.05-0.875 0.131-1.071 0.18-0.202 0.484-0.342 0.91-0.419zM41.625 6.712c-4.59 0.585-8.521-0.439-11.794-3.073-3.273-2.634-5.277-6.834-6.012-12.601-0.735-5.767 0.169-10.321 2.713-13.663 2.543-3.349 6.127-5.318 10.749-5.907 4.623-0.589 8.539 0.396 11.749 2.957 3.216 2.56 5.203 6.807 5.959 12.739 0.756 5.925-0.134 10.518-2.668 13.778-2.541 3.261-6.107 5.184-10.696 5.77zM38.363-19.103c-1.567 0.2-2.792 1.085-3.674 2.656-0.875 1.57-1.147 3.654-0.815 6.253 0.331 2.599 1.091 4.525 2.279 5.778 1.189 1.26 2.607 1.785 4.253 1.575 1.653-0.211 2.903-1.083 3.75-2.615 0.853-1.534 1.113-3.606 0.779-6.219-0.334-2.619-1.123-4.561-2.366-5.827-1.237-1.267-2.639-1.801-4.206-1.601zM75.033 3.577c-4.617 0.303-8.478-0.96-11.583-3.789-3.105-2.829-4.849-7.144-5.23-12.945-0.381-5.801 0.8-10.291 3.544-13.471 2.744-3.187 6.441-4.933 11.091-5.239 4.65-0.305 8.498 0.918 11.545 3.671 3.054 2.752 4.776 7.112 5.169 13.08 0.392 5.96-0.777 10.49-3.507 13.589-2.736 3.099-6.412 4.801-11.029 5.104zM73.357-22.389c-1.577 0.104-2.853 0.912-3.829 2.426-0.97 1.513-1.368 3.577-1.197 6.192 0.172 2.614 0.812 4.583 1.922 5.906 1.11 1.33 2.493 1.941 4.149 1.832 1.663-0.109 2.964-0.903 3.902-2.38 0.945-1.478 1.331-3.532 1.159-6.16-0.173-2.634-0.841-4.621-2.005-5.961-1.157-1.34-2.524-1.959-4.101-1.855zM93.914-0.215v0l-0.26-29.628c-0.007-0.827 0.194-1.478 0.603-1.956 0.402-0.484 0.934-0.728 1.594-0.734v0l8.249-0.072c5.233-0.046 9.221 1.236 11.964 3.845 2.736 2.609 4.129 6.747 4.179 12.414v0c0.106 12.113-5.011 18.215-15.35 18.305v0l-8.44 0.074c-1.68 0.015-2.527-0.735-2.539-2.248zM103.692-23.221l-0.499 0.004 0.129 14.77c0.006 0.693 0.06 1.13 0.161 1.308 0.102 0.179 0.399 0.267 0.893 0.262v0c1.813-0.016 3.181-0.705 4.102-2.066 0.928-1.355 1.378-3.606 1.351-6.752-0.027-3.14-0.532-5.186-1.514-6.137-0.975-0.945-2.516-1.408-4.622-1.389zM155.843 3.961v0c-2.86-0.189-4.373-0.749-4.54-1.683v0l-1.207-6.463-7.833-0.517-1.839 6.012c-0.26 1.005-1.87 1.41-4.831 1.215v0c-1.577-0.104-2.735-0.271-3.474-0.5-0.747-0.23-1.116-0.394-1.11-0.494v0l10.922-32.792c0.017-0.259 2.277-0.241 6.781 0.056 4.497 0.297 6.737 0.575 6.719 0.834v0l6.328 33.98c-0.015 0.226-0.782 0.356-2.301 0.39-1.525 0.033-2.731 0.02-3.615-0.038zM147.241-20.909l-3.337 10.022 5.179 0.341-1.553-10.344zM168.562 5.176v0c-2.979-0.351-4.43-0.855-4.353-1.51v0l3.749-31.78c0.131-1.112 0.703-1.609 1.716-1.489v0l8.63 1.018c4.84 0.571 8.215 1.979 10.125 4.226 1.903 2.245 2.631 5.265 2.184 9.058v0c-0.37 3.138-1.723 5.899-4.058 8.281v0c-1.167 1.185-2.777 2.056-4.829 2.613-2.059 0.549-4.395 0.67-7.011 0.361v0l-1.036 8.779c-0.046 0.391-0.691 0.59-1.933 0.598-1.242 0.001-2.303-0.05-3.184-0.155zM177.646-20.013l-1.033-0.122-0.915 7.757 0.645 0.076c1.139 0.134 2.145-0.113 3.018-0.742 0.866-0.629 1.377-1.596 1.53-2.901 0.155-1.311-0.003-2.276-0.474-2.895-0.477-0.62-1.401-1.011-2.771-1.173zM195.826 8.823v0c-2.958-0.5-4.382-1.076-4.272-1.726v0l5.338-31.552c0.187-1.104 0.783-1.571 1.789-1.401v0l8.568 1.449c4.805 0.813 8.105 2.389 9.9 4.727 1.788 2.338 2.364 5.39 1.727 9.157v0c-0.527 3.116-2.016 5.805-4.468 8.068v0c-1.225 1.125-2.876 1.914-4.954 2.366-2.083 0.445-4.423 0.448-7.02 0.01v0l-1.475 8.716c-0.066 0.388-0.719 0.554-1.961 0.5-1.241-0.061-2.298-0.166-3.172-0.314zM206.161-15.879l-1.025-0.173-1.303 7.7 0.641 0.109c1.131 0.191 2.148-0.005 3.051-0.59 0.897-0.585 1.455-1.525 1.674-2.82 0.22-1.302 0.111-2.273-0.328-2.916-0.446-0.643-1.349-1.08-2.71-1.31z" opacity="1" transform="matrix(1,0,0,1,0,0)" fill="#a437db" class="undefined-text-0" data-fill-palette-color="primary" id="text-0"/></svg></g></svg></g><g transform="matrix(1,0,0,1,118.31980799999998,86.31660354025591)"><svg viewBox="0 0 158.88038400000002 25.491747583011588" height="25.491747583011588" width="158.88038400000002"><g transform="matrix(1,0,0,1,0,0)"><svg width="158.88038400000002" viewBox="5.050000190734863 -34.45000076293945 291.3500061035156 46.75" height="25.491747583011588" data-palette-color="#b19dd0"><path d="M8.95 0L5.05 0 5.05-31.4 24.15-31.4 24.15-28.05 8.95-28.05 8.95-17.6 23.1-17.6 23.1-14.25 8.95-14.25 8.95 0ZM38.5 0.6L38.5 0.6Q35.27 0.6 32.76-0.83 30.25-2.25 28.8-5.05 27.35-7.85 27.35-11.95L27.35-11.95Q27.35-16.07 28.8-18.86 30.25-21.65 32.76-23.08 35.27-24.5 38.5-24.5L38.5-24.5Q41.7-24.5 44.21-23.08 46.72-21.65 48.16-18.86 49.6-16.07 49.6-11.95L49.6-11.95Q49.6-7.85 48.16-5.05 46.72-2.25 44.21-0.83 41.7 0.6 38.5 0.6ZM38.4-2.8L38.4-2.8Q40.72-2.8 42.35-3.91 43.97-5.03 44.81-7.08 45.65-9.13 45.65-11.95L45.65-11.95Q45.65-16.23 43.87-18.69 42.1-21.15 38.6-21.15L38.6-21.15Q36.25-21.15 34.64-20.04 33.02-18.93 32.19-16.86 31.35-14.8 31.35-11.95L31.35-11.95Q31.35-7.73 33.14-5.26 34.92-2.8 38.4-2.8ZM65.82 0.6L65.82 0.6Q62.6 0.6 60.08-0.83 57.57-2.25 56.12-5.05 54.67-7.85 54.67-11.95L54.67-11.95Q54.67-16.07 56.12-18.86 57.57-21.65 60.08-23.08 62.6-24.5 65.82-24.5L65.82-24.5Q69.02-24.5 71.53-23.08 74.05-21.65 75.48-18.86 76.92-16.07 76.92-11.95L76.92-11.95Q76.92-7.85 75.48-5.05 74.05-2.25 71.53-0.83 69.02 0.6 65.82 0.6ZM65.72-2.8L65.72-2.8Q68.05-2.8 69.67-3.91 71.3-5.03 72.13-7.08 72.97-9.13 72.97-11.95L72.97-11.95Q72.97-16.23 71.2-18.69 69.42-21.15 65.92-21.15L65.92-21.15Q63.57-21.15 61.96-20.04 60.35-18.93 59.51-16.86 58.67-14.8 58.67-11.95L58.67-11.95Q58.67-7.73 60.46-5.26 62.25-2.8 65.72-2.8ZM93.04 0.6L93.04 0.6Q90.14 0.6 87.72-0.96 85.29-2.53 83.84-5.36 82.39-8.2 82.39-12.05L82.39-12.05Q82.39-15.88 83.82-18.68 85.24-21.48 87.61-22.99 89.97-24.5 92.79-24.5L92.79-24.5Q95.42-24.5 97.41-23.23 99.39-21.95 100.49-19.55 101.59-17.15 101.59-13.75L101.59-13.75 100.09-13.75Q100.09-16.13 99.16-17.75 98.22-19.38 96.72-20.21 95.22-21.05 93.49-21.05L93.49-21.05Q91.54-21.05 89.93-19.96 88.32-18.88 87.36-16.86 86.39-14.85 86.39-12.05L86.39-12.05Q86.39-9.2 87.36-7.15 88.32-5.1 89.93-4 91.54-2.9 93.49-2.9L93.49-2.9Q95.12-2.9 96.63-3.75 98.14-4.6 99.12-6.24 100.09-7.88 100.09-10.2L100.09-10.2 101.59-10.2Q101.59-6.73 100.46-4.31 99.32-1.9 97.38-0.65 95.44 0.6 93.04 0.6ZM103.99 0L100.74 0 100.09-5.6 100.09-34.1 103.99-34.1 103.99 0ZM134.54 0.6L134.54 0.6Q131.64 0.6 129.21-0.96 126.79-2.53 125.34-5.36 123.89-8.2 123.89-12.05L123.89-12.05Q123.89-15.88 125.31-18.68 126.74-21.48 129.1-22.99 131.46-24.5 134.29-24.5L134.29-24.5Q136.91-24.5 138.9-23.23 140.89-21.95 141.99-19.55 143.09-17.15 143.09-13.75L143.09-13.75 141.59-13.75Q141.59-16.13 140.65-17.75 139.71-19.38 138.21-20.21 136.71-21.05 134.99-21.05L134.99-21.05Q133.04-21.05 131.43-19.96 129.81-18.88 128.85-16.86 127.89-14.85 127.89-12.05L127.89-12.05Q127.89-9.2 128.85-7.15 129.81-5.1 131.43-4 133.04-2.9 134.99-2.9L134.99-2.9Q136.61-2.9 138.13-3.75 139.64-4.6 140.61-6.24 141.59-7.88 141.59-10.2L141.59-10.2 143.09-10.2Q143.09-6.73 141.95-4.31 140.81-1.9 138.88-0.65 136.94 0.6 134.54 0.6ZM145.49 0L142.24 0 141.59-5.6 141.59-34.1 145.49-34.1 145.49 0ZM163.91 0.6L163.91 0.6Q160.81 0.6 158.37-0.99 155.94-2.58 154.52-5.4 153.11-8.22 153.11-11.9L153.11-11.9Q153.11-15.83 154.51-18.65 155.91-21.48 158.35-22.99 160.78-24.5 163.91-24.5L163.91-24.5Q166.63-24.5 168.56-23.4 170.49-22.3 171.66-20.43 172.84-18.55 173.3-16.19 173.76-13.83 173.56-11.3L173.56-11.3 156.26-11.3 156.26-13.7 170.99-13.7 169.84-12.95Q169.91-14.43 169.67-15.9 169.44-17.38 168.78-18.61 168.13-19.85 166.96-20.6 165.78-21.35 163.96-21.35L163.96-21.35Q161.66-21.35 160.11-20.18 158.56-19 157.78-17.09 157.01-15.18 157.01-12.95L157.01-12.95 157.01-11.35Q157.01-8.85 157.77-6.88 158.53-4.9 160.06-3.75 161.59-2.6 163.91-2.6L163.91-2.6Q166.24-2.6 167.74-3.73 169.24-4.85 169.56-7.05L169.56-7.05 173.61-7.05Q173.24-4.67 171.91-2.96 170.59-1.25 168.53-0.33 166.49 0.6 163.91 0.6ZM185.18 0L181.28 0 181.28-34.1 185.18-34.1 185.18 0ZM197.48-29.55L197.48-29.55Q196.28-29.55 195.58-30.24 194.88-30.93 194.88-32.05L194.88-32.05Q194.88-33.15 195.58-33.8 196.28-34.45 197.48-34.45L197.48-34.45Q198.68-34.45 199.38-33.8 200.08-33.15 200.08-32.05L200.08-32.05Q200.08-30.93 199.38-30.24 198.68-29.55 197.48-29.55ZM199.43 0L195.53 0 195.53-23.95 199.43-23.95 199.43 0ZM215.58 0L206.03-23.9 210.48-23.9 217.98-3.35 217.43-3.35 224.93-23.9 229.38-23.9 219.83 0 215.58 0ZM243.6 0.6L243.6 0.6Q240.5 0.6 238.06-0.99 235.63-2.58 234.21-5.4 232.8-8.22 232.8-11.9L232.8-11.9Q232.8-15.83 234.2-18.65 235.6-21.48 238.04-22.99 240.48-24.5 243.6-24.5L243.6-24.5Q246.33-24.5 248.25-23.4 250.18-22.3 251.35-20.43 252.53-18.55 252.99-16.19 253.45-13.83 253.25-11.3L253.25-11.3 235.95-11.3 235.95-13.7 250.68-13.7 249.53-12.95Q249.6-14.43 249.36-15.9 249.13-17.38 248.48-18.61 247.83-19.85 246.65-20.6 245.48-21.35 243.65-21.35L243.65-21.35Q241.35-21.35 239.8-20.18 238.25-19 237.48-17.09 236.7-15.18 236.7-12.95L236.7-12.95 236.7-11.35Q236.7-8.85 237.46-6.88 238.23-4.9 239.75-3.75 241.28-2.6 243.6-2.6L243.6-2.6Q245.93-2.6 247.43-3.73 248.93-4.85 249.25-7.05L249.25-7.05 253.3-7.05Q252.93-4.67 251.6-2.96 250.28-1.25 248.23-0.33 246.18 0.6 243.6 0.6ZM264.87 0L260.97 0 260.97-23.95 264.87-23.95 264.87 0ZM264.87-10.8L263.67-10.8Q263.67-15.35 264.55-18.36 265.42-21.38 267.11-22.86 268.8-24.35 271.22-24.35L271.22-24.35Q272.02-24.35 272.69-24.24 273.35-24.13 274.02-23.9L274.02-23.9 273.77-20.05Q273.07-20.28 272.25-20.44 271.42-20.6 270.77-20.6L270.77-20.6Q268.65-20.6 267.35-19.39 266.05-18.18 265.46-15.98 264.87-13.78 264.87-10.8L264.87-10.8ZM284.9 0L275.1-23.9 279.45-23.9 287.25-3.4 286.35-3.4 292.4-23.9 296.4-23.9 287.4 4.8Q286.27 8.4 284.4 10.35 282.52 12.3 279.6 12.3L279.6 12.3Q278.02 12.3 276.61 11.85 275.2 11.4 273.7 10.55L273.7 10.55 273.7 6.95Q275.02 8 276.26 8.45 277.5 8.9 278.85 8.9L278.85 8.9Q280.35 8.9 281.36 7.95 282.37 7 283.05 5.51 283.72 4.03 284.2 2.4L284.2 2.4 284.9 0Z" opacity="1" transform="matrix(1,0,0,1,0,0)" fill="#b19dd0" class="undefined-text-1" data-fill-palette-color="secondary" id="text-1"/></svg></g></svg></g></svg></g></svg></g><g/></svg></g></svg><rect width="395.52" height="111.8083511232675" fill="none" stroke="none" visibility="hidden"/></g><defs/></svg>